<svg xmlns="http://www.w3.org/2000/svg" viewBox="0 0 960 560" font-family="-apple-system, 'Segoe UI', Roboto, sans-serif">
  <defs>
    <clipPath id="win"><rect x="6" y="6" width="948" height="548" rx="14"></rect></clipPath>
  </defs>

  <rect x="6" y="6" width="948" height="548" rx="14" fill="#ffffff" stroke="#dfe3ec"></rect>
  <g clip-path="url(#win)">
    
    <rect x="236" y="52" width="476" height="502" fill="#f4f6fb"></rect>

    
    <rect x="6" y="6" width="948" height="46" fill="#ffffff"></rect>
    <line x1="6" y1="52" x2="954" y2="52" stroke="#dfe3ec"></line>
    <text x="28" y="37" fill="#17203a" font-size="18" font-weight="800" letter-spacing="-0.3">Keel</text>
    <text x="560" y="35" fill="#6b7690" font-size="13">Overview</text>
    <text x="646" y="35" fill="#d6294e" font-size="13" font-weight="700">Threats</text>
    <rect x="646" y="44" width="52" height="3" rx="1.5" fill="#d6294e"></rect>
    <text x="712" y="35" fill="#6b7690" font-size="13">Mitigations</text>
    <text x="806" y="35" fill="#6b7690" font-size="13">Style guide</text>

    
    <rect x="6" y="52" width="230" height="502" fill="#ffffff"></rect>
    <line x1="236" y1="52" x2="236" y2="554" stroke="#dfe3ec"></line>
    <rect x="20" y="66" width="200" height="30" rx="8" fill="#f6f8fc" stroke="#dfe3ec"></rect>
    <text x="34" y="86" fill="#97a0b5" font-size="12">Filter threats…</text>

    
    <g font-family="ui-monospace, 'SF Mono', monospace">
      <text x="24" y="122" fill="#97a0b5" font-size="10">T-CMD-INJECT</text>
    </g>
    <text x="24" y="138" fill="#17203a" font-size="12">Command injection / RCE…</text>

    
    <rect x="6" y="152" width="230" height="46" fill="#fdeef1"></rect>
    <rect x="6" y="152" width="3" height="46" fill="#d6294e"></rect>
    <text x="24" y="170" fill="#97a0b5" font-size="10" font-family="ui-monospace, monospace">T-CODEGEN</text>
    <text x="24" y="186" fill="#17203a" font-size="12" font-weight="600">Malicious code and command…</text>

    <text x="24" y="222" fill="#97a0b5" font-size="10" font-family="ui-monospace, monospace">T-CRED-THEFT</text>
    <text x="24" y="238" fill="#17203a" font-size="12">Privilege abuse / credential…</text>
    <text x="24" y="272" fill="#97a0b5" font-size="10" font-family="ui-monospace, monospace">T-DATA-LEAK</text>
    <text x="24" y="288" fill="#17203a" font-size="12">Sensitive data disclosure…</text>
    <text x="24" y="322" fill="#97a0b5" font-size="10" font-family="ui-monospace, monospace">T-DOS</text>
    <text x="24" y="338" fill="#17203a" font-size="12">Resource / cost exhaustion…</text>
    <text x="24" y="372" fill="#97a0b5" font-size="10" font-family="ui-monospace, monospace">T-HALLUCINATION</text>
    <text x="24" y="388" fill="#17203a" font-size="12">Misleading or erroneous…</text>

    
    
    <text x="260" y="82" fill="#38415f" font-size="11" font-weight="700" letter-spacing="0.6">TITLE</text>
    <rect x="260" y="90" width="428" height="40" rx="8" fill="#ffffff" stroke="#d7dce8"></rect>
    <text x="274" y="115" fill="#17203a" font-size="15" font-weight="600">Malicious code and command generation</text>
    <text x="260" y="150" fill="#97a0b5" font-size="10" font-family="ui-monospace, monospace">T-CODEGEN</text>

    
    <text x="260" y="184" fill="#38415f" font-size="12" font-weight="700" letter-spacing="0.6">HARM</text>
    <line x1="300" y1="180" x2="688" y2="180" stroke="#eef1f7"></line>
    <text x="260" y="202" fill="#97a0b5" font-size="11">the consequence class</text>
    <rect x="260" y="210" width="220" height="34" rx="8" fill="#ffffff" stroke="#d7dce8"></rect>
    <text x="274" y="232" fill="#17203a" font-size="13">code-execution</text>
    <path d="M462,223 l6,6 l6,-6" fill="none" stroke="#97a0b5" stroke-width="1.5"></path>

    
    <text x="260" y="278" fill="#38415f" font-size="12" font-weight="700" letter-spacing="0.6">SURFACE</text>
    <line x1="316" y1="274" x2="688" y2="274" stroke="#eef1f7"></line>
    <text x="260" y="296" fill="#97a0b5" font-size="11">which boundary the untrusted influence crosses</text>
    <rect x="260" y="306" width="16" height="16" rx="4" fill="#d6294e"></rect>
    <path d="M263,314 l3,3 l6,-7" fill="none" stroke="#fff" stroke-width="1.6"></path>
    <text x="284" y="319" fill="#17203a" font-size="12">user-agent</text>
    <rect x="372" y="306" width="16" height="16" rx="4" fill="#fff" stroke="#c3cad9"></rect>
    <text x="396" y="319" fill="#4a5570" font-size="12">agent-agent</text>
    <rect x="486" y="306" width="16" height="16" rx="4" fill="#d6294e"></rect>
    <path d="M489,314 l3,3 l6,-7" fill="none" stroke="#fff" stroke-width="1.6"></path>
    <text x="510" y="319" fill="#17203a" font-size="12">agent-environment</text>

    
    <text x="260" y="360" fill="#38415f" font-size="12" font-weight="700" letter-spacing="0.6">WEAKNESSES</text>
    <line x1="352" y1="356" x2="688" y2="356" stroke="#eef1f7"></line>

    
    <rect x="260" y="368" width="428" height="120" rx="10" fill="#f6f8fc" stroke="#dfe3ec"></rect>
    <text x="276" y="392" fill="#6b7690" font-size="11" font-weight="700">1</text>
    <text x="668" y="392" fill="#97a0b5" font-size="13">✕</text>
    <text x="276" y="414" fill="#4a5570" font-size="11">component</text>
    <rect x="276" y="420" width="150" height="28" rx="7" fill="#ffffff" stroke="#d7dce8"></rect>
    <text x="288" y="438" fill="#17203a" font-size="12">downstream</text>
    <text x="276" y="466" fill="#4a5570" font-size="11">text</text>
    <text x="276" y="482" fill="#232d4a" font-size="11.5">The agent's output reaches an executing sink (eval/exec, CI/CD)…</text>

    
    <rect x="260" y="498" width="428" height="30" rx="8" fill="#f6f8fc" stroke="#dfe3ec"></rect>
    <text x="276" y="517" fill="#6b7690" font-size="12">▸</text>
    <text x="294" y="517" fill="#38415f" font-size="12">downstream · rendered as HTML/MD, unescaped (XSS)</text>

    
    <rect x="712" y="52" width="242" height="502" fill="#ffffff"></rect>
    <line x1="712" y1="52" x2="712" y2="554" stroke="#dfe3ec"></line>
    
    <rect x="728" y="68" width="120" height="28" rx="8" fill="#eef1f7"></rect>
    <rect x="730" y="70" width="58" height="24" rx="7" fill="#ffffff" stroke="#d7dce8"></rect>
    <text x="759" y="86" text-anchor="middle" fill="#17203a" font-size="11" font-weight="700">Preview</text>
    <text x="818" y="86" text-anchor="middle" fill="#6b7690" font-size="11">Guidance</text>

    <text x="728" y="128" fill="#17203a" font-size="13" font-weight="700">Malicious code and</text>
    <text x="728" y="145" fill="#17203a" font-size="13" font-weight="700">command generation</text>
    <text x="728" y="172" fill="#6b7690" font-size="11">Harm</text>
    <rect x="762" y="161" width="96" height="16" rx="4" fill="#d6294e"></rect>
    <text x="810" y="173" text-anchor="middle" fill="#fff" font-size="10" font-weight="700" font-family="ui-monospace, monospace">code-execution</text>

    <text x="728" y="204" fill="#97a0b5" font-size="10" font-weight="700" letter-spacing="0.5">WEAKNESSES</text>
    <text x="728" y="222" fill="#38415f" font-size="11">· output reaches an executing</text>
    <text x="738" y="237" fill="#38415f" font-size="11">sink, run unsanitized</text>
    <text x="728" y="256" fill="#38415f" font-size="11">· rendered as HTML/MD → XSS</text>

    <text x="728" y="286" fill="#97a0b5" font-size="10" font-weight="700" letter-spacing="0.5">MITIGATIONS</text>
    <text x="728" y="306" fill="#1f9d57" font-size="12" font-weight="700">⛔ gating 6</text>
    <text x="820" y="306" fill="#6b7690" font-size="12">〜 soft 3</text>

    <rect x="728" y="330" width="210" height="1" fill="#eef1f7"></rect>
    <text x="728" y="352" fill="#97a0b5" font-size="10" font-weight="700" letter-spacing="0.5">INSIGHTS</text>
    <text x="728" y="371" fill="#e0a021" font-size="11">⚠ no references yet</text>
    <text x="728" y="388" fill="#1f9d57" font-size="11">✓ has a gating mitigation</text>
  </g>
</svg>